<?xml version="1.0" standalone="no"?><!DOCTYPE svg PUBLIC "-//W3C//DTD SVG 1.1//EN" "http://www.w3.org/Graphics/SVG/1.1/DTD/svg11.dtd"><svg t="1701322921483" class="icon" viewBox="0 0 1024 1024" version="1.1" xmlns="http://www.w3.org/2000/svg" p-id="10386" width="32" height="32" xmlns:xlink="http://www.w3.org/1999/xlink"><path d="M870.4 358.4v146.285714h-109.714286l-146.285714 248.685715-204.8-358.4-65.828571 109.714285H146.285714v-146.285714h117.028572l146.285714-248.685714 204.8 358.4 58.514286-102.4h197.485714z" fill="#1296db" p-id="10387"></path><path d="M614.4 811.885714L409.6 453.485714l-51.2 80.457143H117.028571V329.142857h124.342858L402.285714 51.2l204.8 358.4 43.885715-73.142857h219.428571v21.942857h29.257143v175.542857h-124.342857l-160.914286 277.942857zM409.6 336.457143l204.8 358.4 131.657143-219.428572h102.4V394.971429H687.542857l-73.142857 131.657142-204.8-358.4-131.657143 219.428572H175.542857v87.771428h153.6l80.457143-138.971428z" fill="#1296db" p-id="10388"></path><path d="M1024 804.571429H0V0h1016.685714l7.314286 804.571429zM65.828571 731.428571h877.714286V73.142857H65.828571v658.285714z" fill="#1296db" p-id="10389"></path><path d="M0 936.228571h1016.685714v73.142858H0z" fill="#1296db" p-id="10390"></path></svg>