<?xml version="1.0" standalone="no"?><!DOCTYPE svg PUBLIC "-//W3C//DTD SVG 1.1//EN" "http://www.w3.org/Graphics/SVG/1.1/DTD/svg11.dtd"><svg t="1701227508472" class="icon" viewBox="0 0 1024 1024" version="1.1" xmlns="http://www.w3.org/2000/svg" p-id="6139" width="32" height="32" xmlns:xlink="http://www.w3.org/1999/xlink"><path d="M1036.59868918 989.03735309c-37.6710637 0-996.1472 0-1050.75082429 0-53.74922903 0-79.92479289-63.30292148-56.31241481-111.61508978C-38.15287467 811.47848375 426.0944403 29.86216613 455.06620682-25.82887031c25.94254697-50.02095882 87.84736711-50.87535408 113.78991407 0 39.53519882 77.43927941 501.53001718 855.5603437 524.288 900.84329244C1121.80519822 931.63752613 1085.53223585 989.03735309 1036.59868918 989.03735309L1036.59868918 989.03735309zM456.77499733 268.54913264l36.97201304 387.89544771 55.38034726 0 37.04968534-387.89544771L456.77499733 268.54913264 456.77499733 268.54913264zM586.17704297 711.98027219L456.77499733 711.98027219l0 110.76069453 129.40204564 0L586.17704297 711.98027219 586.17704297 711.98027219z" fill="#d81e06" p-id="6140"></path></svg>