<svg width="22" height="22" viewBox="0 0 22 22" fill="none" xmlns="http://www.w3.org/2000/svg">
<path fill-rule="evenodd" clip-rule="evenodd" d="M14.1212 5.63602C11.7781 3.29288 7.9791 3.29288 5.63595 5.63602C3.29281 7.97917 3.29281 11.7782 5.63595 14.1213C7.9791 16.4644 11.7781 16.4644 14.1212 14.1213C16.4644 11.7782 16.4644 7.97917 14.1212 5.63602ZM7.05016 12.7071C5.48807 11.145 5.48807 8.61233 7.05016 7.05024C8.61226 5.48814 11.1449 5.48814 12.707 7.05024C14.2691 8.61233 14.2691 11.145 12.707 12.7071C11.1449 14.2692 8.61226 14.2692 7.05016 12.7071Z" fill="#999999"/>
<path d="M12.707 14.1213L14.1212 12.7071L16.9497 15.5356C17.3402 15.9261 17.3402 16.5592 16.9497 16.9498C16.5591 17.3403 15.926 17.3403 15.5355 16.9498L12.707 14.1213Z" fill="#999999"/>
</svg>
