<?xml version="1.0" standalone="no"?><!DOCTYPE svg PUBLIC "-//W3C//DTD SVG 1.1//EN" "http://www.w3.org/Graphics/SVG/1.1/DTD/svg11.dtd"><svg t="1701241085781" class="icon" viewBox="0 0 1024 1024" version="1.1" xmlns="http://www.w3.org/2000/svg" p-id="24637" width="48" height="48" xmlns:xlink="http://www.w3.org/1999/xlink"><path d="M204.8 469.333333c-25.6 0-42.666667 17.066667-42.666667 42.666667s17.066667 42.666667 42.666667 42.666667 42.666667-17.066667 42.666667-42.666667-21.333333-42.666667-42.666667-42.666667z m0 64c-12.8 0-21.333333-8.533333-21.333333-21.333333s8.533333-21.333333 21.333333-21.333333 21.333333 8.533333 21.333333 21.333333-12.8 21.333333-21.333333 21.333333zM819.2 469.333333c-25.6 0-42.666667 17.066667-42.666667 42.666667s17.066667 42.666667 42.666667 42.666667 42.666667-17.066667 42.666667-42.666667-17.066667-42.666667-42.666667-42.666667z m0 64c-12.8 0-21.333333-8.533333-21.333333-21.333333s8.533333-21.333333 21.333333-21.333333 21.333333 8.533333 21.333333 21.333333-8.533333 21.333333-21.333333 21.333333z" fill="#36ab60" p-id="24638"></path><path d="M721.066667 712.533333c-29.866667-21.333333-59.733333-42.666667-93.866667-51.2 8.533333-38.4 12.8-81.066667 12.8-128 8.533333-4.266667 17.066667-8.533333 17.066667-21.333333s-8.533333-17.066667-17.066667-21.333333c0-46.933333-4.266667-89.6-12.8-128 34.133333-12.8 68.266667-29.866667 93.866667-51.2 34.133333 29.866667 55.466667 72.533333 68.266666 115.2h51.2c-12.8-55.466667-42.666667-106.666667-81.066666-149.333334l-29.866667-29.866666C669.866667 200.533333 593.066667 170.666667 512 170.666667s-157.866667 29.866667-217.6 76.8c-8.533333 8.533333-21.333333 17.066667-29.866667 29.866666-38.4 42.666667-68.266667 93.866667-81.066666 149.333334h51.2c12.8-42.666667 38.4-85.333333 68.266666-115.2 29.866667 21.333333 59.733333 42.666667 93.866667 51.2-8.533333 38.4-12.8 85.333333-12.8 128-8.533333 4.266667-17.066667 8.533333-17.066667 21.333333s8.533333 17.066667 17.066667 21.333333c0 46.933333 4.266667 89.6 12.8 128-34.133333 12.8-68.266667 29.866667-93.866667 51.2C268.8 682.666667 247.466667 640 234.666667 597.333333H183.466667c12.8 55.466667 42.666667 106.666667 81.066666 149.333334l29.866667 29.866666C354.133333 823.466667 430.933333 853.333333 512 853.333333s157.866667-29.866667 217.6-76.8c12.8-8.533333 21.333333-17.066667 29.866667-29.866666 38.4-42.666667 68.266667-93.866667 81.066666-149.333334h-51.2c-12.8 42.666667-34.133333 85.333333-68.266666 115.2z m-196.266667 89.6h-25.6c-17.066667-17.066667-38.4-51.2-51.2-115.2 21.333333-4.266667 42.666667-8.533333 64-8.533333s42.666667 4.266667 64 8.533333c-12.8 64-34.133333 102.4-51.2 115.2z m-25.6-580.266666h25.6c17.066667 17.066667 38.4 51.2 51.2 115.2-21.333333 0-42.666667 4.266667-64 4.266666s-42.666667-4.266667-64-8.533333c12.8-59.733333 34.133333-98.133333 51.2-110.933333z m192 59.733333c-21.333333 17.066667-46.933333 29.866667-72.533333 38.4-8.533333-34.133333-21.333333-64-34.133334-89.6 38.4 8.533333 76.8 25.6 106.666667 51.2z m-358.4 0c29.866667-25.6 68.266667-42.666667 106.666667-51.2-12.8 25.6-25.6 55.466667-34.133334 89.6-25.6-8.533333-51.2-21.333333-72.533333-38.4z m93.866667 251.733333c8.533333 0 17.066667-8.533333 17.066666-21.333333s-8.533333-21.333333-17.066666-21.333333c0-42.666667 4.266667-81.066667 8.533333-115.2 25.6 4.266667 51.2 8.533333 76.8 8.533333s51.2-4.266667 72.533333-8.533333c4.266667 34.133333 8.533333 72.533333 8.533334 115.2-8.533333 0-17.066667 8.533333-17.066667 21.333333s8.533333 21.333333 17.066667 21.333333c0 42.666667-4.266667 81.066667-8.533334 115.2-21.333333-4.266667-46.933333-8.533333-72.533333-8.533333s-51.2 4.266667-72.533333 8.533333c-8.533333-34.133333-12.8-72.533333-12.8-115.2z m-93.866667 209.066667c21.333333-17.066667 46.933333-29.866667 72.533333-38.4 8.533333 38.4 21.333333 68.266667 34.133334 93.866667-38.4-12.8-76.8-29.866667-106.666667-55.466667z m251.733333 51.2c12.8-25.6 25.6-55.466667 34.133334-93.866667 25.6 8.533333 51.2 21.333333 72.533333 38.4-29.866667 29.866667-68.266667 46.933333-106.666667 55.466667z" fill="#36ab60" p-id="24639"></path><path d="M320 533.333333c12.8 0 21.333333-8.533333 21.333333-21.333333s-8.533333-21.333333-21.333333-21.333333H298.666667c-12.8 0-21.333333 8.533333-21.333334 21.333333s8.533333 21.333333 21.333334 21.333333h21.333333zM550.4 512c0-12.8-8.533333-21.333333-21.333333-21.333333h-34.133334c-12.8 0-21.333333 8.533333-21.333333 21.333333s8.533333 21.333333 21.333333 21.333333h34.133334c12.8 0 21.333333-8.533333 21.333333-21.333333zM704 490.666667c-12.8 0-21.333333 8.533333-21.333333 21.333333s8.533333 21.333333 21.333333 21.333333h21.333333c12.8 0 21.333333-8.533333 21.333334-21.333333s-8.533333-21.333333-21.333334-21.333333h-21.333333z" fill="#36ab60" p-id="24640"></path></svg>