<?xml version="1.0" standalone="no"?><!DOCTYPE svg PUBLIC "-//W3C//DTD SVG 1.1//EN" "http://www.w3.org/Graphics/SVG/1.1/DTD/svg11.dtd"><svg t="1702263092940" class="icon" viewBox="0 0 1024 1024" version="1.1" xmlns="http://www.w3.org/2000/svg" p-id="5337" xmlns:xlink="http://www.w3.org/1999/xlink" width="128" height="128"><path d="M642.40046977 292.83294457c-48.70379059-19.63862455-86.40995067-40.84833959-109.19075473-55.77369561l-5.49881453-3.14217952-5.49881598 3.14217952c-18.85308003 11.78317502-57.34478462 34.56398057-109.19075473 55.77369561-47.91824462 19.63862455-94.26540019 27.49407555-124.90165524 30.63625507l-8.64099552 0.7855445V574.84360061c0 120.18838525 175.96208084 258.44430599 247.44667549 258.44430453 71.48459465 0 247.44667549-137.47037477 247.44667549-258.44430453V325.04029012l-8.64099403-0.78554598c-29.06516457-3.9277255-75.41232014-11.78317502-123.33056622-31.42179957z m-131.18601428 380.98932625l-111.54739121-95.05094618 26.70853105-30.63625506 80.91113466 68.34241513L661.25354979 439.72985937l30.63625506 26.70853104-180.67534936 207.38388041z" fill="#36ab60" p-id="5338"></path><path d="M519.06990501 10.82228851c-276.51184005 0-500.3921655 223.88032544-500.39216551 500.39216698s223.88032544 500.3921655 500.39216551 500.3921655 500.3921655-223.88032544 500.3921655-500.3921655-223.88032544-500.3921655-500.3921655-500.39216698z m191.67297989 766.69192251c-61.27251012 58.1303306-132.75710478 96.62203518-182.24643987 96.62203519s-121.75947572-37.70616007-182.24643987-96.62203519c-67.55687062-64.41468963-106.0485752-138.25592077-106.04857521-202.67061041V285.76303955H260.62559901c0.78554451 0 68.34241515-1.5710905 138.25592078-29.85071055 70.69905013-28.27962006 117.04620573-62.05805462 117.83175022-62.05805463l11.78317502-8.64099551 12.56871954 8.64099551c0.78554451 0 46.34715557 32.99289006 117.83175022 62.05805463 70.69905013 28.27962006 138.25592077 29.85071054 139.04146527 29.85071055h19.63862603V574.84360061c-1.5710905 63.62914512-40.06279507 137.47037477-106.83412119 202.67061041z" fill="#36ab60" p-id="5339"></path></svg>