<?xml version="1.0" standalone="no"?><!DOCTYPE svg PUBLIC "-//W3C//DTD SVG 1.1//EN" "http://www.w3.org/Graphics/SVG/1.1/DTD/svg11.dtd"><svg t="1702280777614" class="icon" viewBox="0 0 1024 1024" version="1.1" xmlns="http://www.w3.org/2000/svg" p-id="5151" xmlns:xlink="http://www.w3.org/1999/xlink" width="128" height="128"><path d="M338.11 753.5h351.5V551.74c0-98.24-78.66-177.86-175.75-177.86S338.11 453.5 338.11 551.74zM343.66 366.27a20.33 20.33 0 0 0 29.22 2.6 21.81 21.81 0 0 0 2.56-30.09L318.52 269a20.45 20.45 0 0 0-14.06-7.54 20.22 20.22 0 0 0-15.16 4.93 21.74 21.74 0 0 0-2.56 30.09zM513.86 317.63a20.26 20.26 0 0 0 15-6.66 23.2 23.2 0 0 0 6.12-15.83v-95.68c0-12.36-9.49-22.43-21.09-22.43s-21.09 10.14-21.09 22.43v95.75a22.91 22.91 0 0 0 6.12 15.85 20.48 20.48 0 0 0 14.94 6.57zM668.9 368.87a20 20 0 0 0 13.29 5 20.1 20.1 0 0 0 15.86-7.6l57-69.83a21.79 21.79 0 0 0-2.63-30.09 20.42 20.42 0 0 0-29.18 2.65l-56.9 69.79a21.8 21.8 0 0 0 2.56 30.08zM287 514.48c11.91 0.14 21.94-8.06 22.92-18.8s-7.31-20.23-19.15-21.92l-94.87-15.21a24.61 24.61 0 0 0-17 3.45 20.34 20.34 0 0 0-9.2 13.26c-2.18 11.09 6 21.64 18.31 23.66L283 514.14a26.53 26.53 0 0 0 4 0.34zM872 475.21a20.41 20.41 0 0 0-9.24-13.21 24.66 24.66 0 0 0-17-3.45L751 473.78c-11.81 1.62-20.11 11.24-19.13 21.94s11 18.89 23 18.76a40.42 40.42 0 0 0 4.06-0.27L853.72 499c12.34-2.07 20.56-12.69 18.28-23.79zM720.37 809.74H307.26c-21.78 0-39.46 15.75-39.46 35.18a33.16 33.16 0 0 0 11.5 24.75 43 43 0 0 0 28 10.37h413.16c21.78 0 39.45-15.69 39.45-35.12s-17.67-35.13-39.54-35.18zM754.85 514.48h-0.02 0.02z" p-id="5152" fill="#eb9a4d"></path></svg>